#tb 0: 1/25
0,          0,          0,        1,  1382400, 0x6ef5c76e
0,          1,          1,        1,  1382400, 0x1e1926b1
0,          2,          2,        1,  1382400, 0x69888786
0,          3,          3,        1,  1382400, 0x1f193659
0,          4,          4,        1,  1382400, 0x566eb1df
0,          5,          5,        1,  1382400, 0x49b3a668
0,          6,          6,        1,  1382400, 0x1b774ed8
0,          7,          7,        1,  1382400, 0x2296a2bc
